#N canvas 738 35 524 597 10;
#X obj 144 16 loadbang;
#X obj 141 53 bng 15 250 50 0 empty empty empty 17 7 0 10 -262144 -1
-1;
#X obj 50 104 delay 500;
#X msg 48 149 start;
#X msg 144 102 open speech.wav;
#X obj 143 157 readsf~;
#X obj 198 352 sig~;
#X floatatom 194 311 5 0 0 0 - - -;
#X obj 182 263 hsl 128 15 1 1000 0 0 empty empty delay -2 -8 0 10 -262144
-1 -1 1900 1;
#X obj 153 552 output~;
#X obj 240 550 wsprobe~;
#X obj 195 397 vd~ delayline;
#X obj 339 373 hsl 128 15 0 1 0 0 empty empty feedback -2 -8 0 10 -262144
-1 -1 11400 1;
#X floatatom 344 416 5 0 0 0 - - -;
#X obj 338 460 sig~;
#X obj 334 501 *~;
#X obj 330 538 s~ feedback;
#X obj 155 504 +~;
#X obj 223 155 r~ feedback;
#X obj 172 202 delwrite~ delayline 1000;
#X connect 0 0 1 0;
#X connect 1 0 4 0;
#X connect 1 0 2 0;
#X connect 2 0 3 0;
#X connect 3 0 5 0;
#X connect 4 0 5 0;
#X connect 5 0 17 0;
#X connect 5 0 19 0;
#X connect 5 1 1 0;
#X connect 6 0 11 0;
#X connect 7 0 6 0;
#X connect 8 0 7 0;
#X connect 11 0 17 1;
#X connect 12 0 13 0;
#X connect 13 0 14 0;
#X connect 14 0 15 1;
#X connect 15 0 16 0;
#X connect 17 0 9 0;
#X connect 17 0 9 1;
#X connect 17 0 10 0;
#X connect 17 0 15 0;
#X connect 18 0 19 0;
