#N canvas 96 108 1008 779 10;
#X obj 550 290 sig~;
#X floatatom 804 160 5 0 0 0 - - -;
#X obj 630 164 hsl 128 15 0 1000 0 0 empty empty delay -2 -8 0 10 -262144
-1 -1 12700 1;
#X obj 355 611 output~;
#X obj 490 633 wsprobe~;
#X obj 435 393 vd~ delayline;
#X obj 630 215 hsl 128 15 0 1 0 0 empty empty feedback -2 -8 0 10 -262144
-1 -1 9500 1;
#X floatatom 803 216 5 0 0 0 - - -;
#X obj 651 400 sig~;
#X obj 574 497 *~;
#X obj 570 534 s~ feedback;
#X obj 395 500 +~;
#X obj 463 151 r~ feedback;
#X obj 412 198 delwrite~ delayline 1000;
#X obj 698 500 *~;
#X obj 774 266 route 0 1;
#X obj 776 116 vradio 15 1 0 2 empty empty empty 0 -8 0 4 -262144 -1
-1 0;
#X msg 776 31 0;
#X msg 748 337 0;
#X msg 687 336 1;
#X msg 816 320 0;
#X msg 874 314 1;
#X obj 268 291 *~;
#X obj 718 562 *~;
#X obj 364 59 adc~;
#X connect 0 0 14 0;
#X connect 1 0 0 0;
#X connect 2 0 1 0;
#X connect 5 0 11 1;
#X connect 6 0 7 0;
#X connect 7 0 8 0;
#X connect 8 0 23 0;
#X connect 9 0 10 0;
#X connect 11 0 3 0;
#X connect 11 0 3 1;
#X connect 11 0 4 0;
#X connect 11 0 9 0;
#X connect 12 0 13 0;
#X connect 14 0 5 0;
#X connect 15 0 19 0;
#X connect 15 0 18 0;
#X connect 15 1 20 0;
#X connect 15 1 21 0;
#X connect 16 0 15 0;
#X connect 17 0 16 0;
#X connect 18 0 14 1;
#X connect 18 0 23 1;
#X connect 19 0 22 1;
#X connect 20 0 22 1;
#X connect 21 0 14 1;
#X connect 21 0 23 1;
#X connect 22 0 11 0;
#X connect 23 0 9 1;
#X connect 24 0 11 0;
#X connect 24 0 13 0;
#X connect 24 0 22 0;
#X coords 0 -1 1 1 300 150 1 600 110;
