#N canvas 0 0 1366 686 10;
#X obj 343 -121 loadbang;
#X msg 342 -87 0;
#X obj 263 329 *~;
#X obj 263 359 -~;
#X obj 306 329 *~;
#X obj 308 266 cos~;
#X obj 347 299 cos~;
#X obj 309 231 phasor~;
#X obj 348 265 +~ -0.25;
#X obj 309 196 sig~;
#X floatatom 490 25 5 0 0 0 - - -;
#X obj 345 27 hsl 128 15 -1000 1000 0 0 empty empty Frequency_Shift
-2 -8 0 10 -262144 -1 -1 7900 1;
#X obj 286 449 output~;
#X obj 262 299 hilbert~;
#X obj 260 17 adc~;
#X obj 469 235 sig~;
#X floatatom 490 62 5 0 0 0 - - -;
#X obj 343 62 hsl 128 15 0 1000 0 0 empty empty delay -2 -8 0 10 -262144
-1 -1 11000 1;
#X obj 469 399 vd~ delayline;
#X obj 344 96 hsl 128 15 0 1 0 0 empty empty feedback -2 -8 0 10 -262144
-1 -1 6500 1;
#X floatatom 490 94 5 0 0 0 - - -;
#X obj 488 172 sig~;
#X obj 466 466 *~;
#X obj 466 500 s~ feedback;
#X obj 537 195 r~ feedback;
#X obj 536 269 delwrite~ delayline 1000;
#X obj 468 432 +~;
#X obj 315 19 vradio 15 1 0 2 empty empty empty 0 -8 0 10 -262144 -1
-1 1;
#X obj 158 124 route 0;
#X obj 159 213 *~;
#X msg 158 164 0;
#X msg 195 163 1;
#X obj 316 56 vradio 15 1 0 2 empty empty empty 0 -8 0 10 -262144 -1
-1 1;
#X obj 315 97 vradio 15 1 0 2 empty empty empty 0 -8 0 10 -262144 -1
-1 1;
#X obj 470 273 route 0;
#X obj 471 362 *~;
#X msg 470 313 0;
#X msg 507 312 1;
#X obj 765 126 route 0;
#X obj 766 215 *~;
#X msg 765 166 0;
#X msg 802 165 1;
#X connect 0 0 1 0;
#X connect 1 0 11 0;
#X connect 1 0 17 0;
#X connect 1 0 19 0;
#X connect 2 0 3 0;
#X connect 3 0 25 0;
#X connect 3 0 26 1;
#X connect 4 0 3 1;
#X connect 5 0 2 1;
#X connect 6 0 4 1;
#X connect 7 0 8 0;
#X connect 7 0 5 0;
#X connect 8 0 6 0;
#X connect 9 0 29 0;
#X connect 10 0 9 0;
#X connect 11 0 10 0;
#X connect 13 0 2 0;
#X connect 13 1 4 0;
#X connect 14 0 13 0;
#X connect 15 0 35 0;
#X connect 16 0 15 0;
#X connect 17 0 16 0;
#X connect 18 0 26 0;
#X connect 19 0 20 0;
#X connect 20 0 21 0;
#X connect 21 0 39 0;
#X connect 22 0 23 0;
#X connect 24 0 25 0;
#X connect 26 0 22 0;
#X connect 26 0 12 0;
#X connect 26 0 12 1;
#X connect 27 0 28 0;
#X connect 28 0 30 0;
#X connect 28 1 31 0;
#X connect 29 0 7 0;
#X connect 30 0 29 1;
#X connect 31 0 29 1;
#X connect 32 0 34 0;
#X connect 33 0 38 0;
#X connect 34 0 36 0;
#X connect 34 1 37 0;
#X connect 35 0 18 0;
#X connect 36 0 35 1;
#X connect 37 0 35 1;
#X connect 38 0 40 0;
#X connect 38 1 41 0;
#X connect 39 0 22 1;
#X connect 40 0 39 1;
#X connect 41 0 39 1;
#X coords 0 -1 1 1 255 150 1 300 10;
