#N canvas 702 30 592 597 10;
#X obj 134 -17 loadbang;
#X obj 134 25 bng 15 250 50 0 empty empty empty 17 7 0 10 -262144 -1
-1;
#X obj 59 46 delay 500;
#X msg 59 83 start;
#X msg 357 -21 0;
#X obj 199 480 *~;
#X obj 197 529 -~;
#X obj 253 478 *~;
#X obj 181 385 cos~;
#X obj 248 386 cos~;
#X obj 182 321 phasor~;
#X obj 246 345 +~ -0.25;
#X obj 266 271 sig~;
#X floatatom 266 226 5 0 0 0 - - -;
#X obj 361 58 hsl 128 15 -1000 1000 0 0 empty empty Frequency_Shift
-2 -8 0 10 -262144 -1 -1 6350 1;
#X obj 373 111 output~;
#X obj 198 555 wsprobe~;
#X obj 196 418 hilbert~;
#X obj 117 134 *~;
#X msg 206 80 0;
#X msg 329 -21 0;
#X obj 231 24 route 0 1;
#X msg 175 80 1;
#X obj 219 178 *~;
#X msg 240 77 0;
#X obj 328 21 vradio 15 1 0 8 empty empty empty 0 -8 0 10 -262144 -1
-1 0;
#X obj 20 124 adc~;
#X msg 272 77 1;
#X connect 0 0 1 0;
#X connect 0 0 4 0;
#X connect 1 0 2 0;
#X connect 2 0 3 0;
#X connect 4 0 14 0;
#X connect 5 0 6 0;
#X connect 6 0 15 0;
#X connect 6 0 15 1;
#X connect 6 0 16 0;
#X connect 7 0 6 1;
#X connect 8 0 5 1;
#X connect 9 0 7 1;
#X connect 10 0 11 0;
#X connect 10 0 8 0;
#X connect 11 0 9 0;
#X connect 12 0 23 0;
#X connect 13 0 12 0;
#X connect 14 0 13 0;
#X connect 17 0 5 0;
#X connect 17 1 7 0;
#X connect 18 0 15 0;
#X connect 19 0 18 1;
#X connect 20 0 25 0;
#X connect 21 0 22 0;
#X connect 21 0 24 0;
#X connect 21 1 19 0;
#X connect 21 1 27 0;
#X connect 22 0 18 1;
#X connect 23 0 10 0;
#X connect 24 0 23 1;
#X connect 25 0 21 0;
#X connect 26 0 17 0;
#X connect 26 0 18 0;
#X connect 27 0 23 1;
#X coords 0 -1 1 1 200 150 1 300 10;
