#N canvas 0 0 1366 686 10;
#X obj 341 -56 loadbang;
#X msg 341 -19 0;
#X obj 262 393 *~;
#X obj 262 423 -~;
#X obj 305 393 *~;
#X obj 307 330 cos~;
#X obj 346 363 cos~;
#X obj 308 295 phasor~;
#X obj 345 328 +~ -0.25;
#X obj 308 260 sig~;
#X floatatom 490 25 5 0 0 0 - - -;
#X obj 345 27 hsl 128 15 -1000 1000 0 0 empty empty Frequency_Shift
-2 -8 0 10 -262144 -1 -1 6350 1;
#X obj 811 367 output~;
#X obj 261 363 hilbert~;
#X obj 260 17 adc~;
#X obj 490 258 sig~;
#X floatatom 490 62 5 0 0 0 - - -;
#X obj 343 62 hsl 128 15 0 1000 0 0 empty empty delay -2 -8 0 10 -262144
-1 -1 0 1;
#X obj 481 290 vd~ delayline;
#X obj 344 96 hsl 128 15 0 1 0 0 empty empty feedback -2 -8 0 10 -262144
-1 -1 0 1;
#X floatatom 490 94 5 0 0 0 - - -;
#X obj 695 254 sig~;
#X obj 480 357 *~;
#X obj 479 388 s~ feedback;
#X obj 263 449 r~ feedback;
#X obj 262 506 delwrite~ delayline 1000;
#X obj 480 323 +~;
#X obj 315 19 vradio 15 1 0 2 empty empty empty 0 -8 0 10 -262144 -1
-1 0;
#X obj 196 211 route 0;
#X obj 212 277 *~;
#X msg 196 234 0;
#X msg 235 233 1;
#X obj 316 56 vradio 15 1 0 2 empty empty empty 0 -8 0 10 -262144 -1
-1 0;
#X obj 315 97 vradio 15 1 0 2 empty empty empty 0 -8 0 10 -262144 -1
-1 0;
#X obj 415 209 route 0;
#X obj 429 274 *~;
#X msg 415 232 0;
#X msg 452 232 1;
#X obj 607 210 route 0;
#X obj 619 270 *~;
#X msg 607 233 0;
#X msg 646 232 1;
#X obj 546 15 LFO~;
#X obj 839 243 sig~;
#X obj 825 278 +~;
#X obj 825 315 *~ 0.5;
#X obj 811 339 *~;
#X text 76 210 Frequency Shifting;
#X text 387 246;
#X text 368 208 Delay;
#X text 546 208 Feedback;
#X text 804 243;
#X text 795 211 LFO;
#X connect 0 0 1 0;
#X connect 0 0 42 0;
#X connect 1 0 11 0;
#X connect 1 0 17 0;
#X connect 1 0 19 0;
#X connect 2 0 3 0;
#X connect 3 0 25 0;
#X connect 3 0 26 1;
#X connect 4 0 3 1;
#X connect 5 0 2 1;
#X connect 6 0 4 1;
#X connect 7 0 8 0;
#X connect 7 0 5 0;
#X connect 8 0 6 0;
#X connect 9 0 29 0;
#X connect 10 0 9 0;
#X connect 11 0 10 0;
#X connect 13 0 2 0;
#X connect 13 1 4 0;
#X connect 14 0 13 0;
#X connect 15 0 35 0;
#X connect 16 0 15 0;
#X connect 17 0 16 0;
#X connect 18 0 26 0;
#X connect 19 0 20 0;
#X connect 20 0 21 0;
#X connect 21 0 39 0;
#X connect 22 0 23 0;
#X connect 24 0 25 0;
#X connect 26 0 22 0;
#X connect 26 0 46 0;
#X connect 27 0 28 0;
#X connect 28 0 30 0;
#X connect 28 1 31 0;
#X connect 29 0 7 0;
#X connect 30 0 29 1;
#X connect 31 0 29 1;
#X connect 32 0 34 0;
#X connect 33 0 38 0;
#X connect 34 0 36 0;
#X connect 34 1 37 0;
#X connect 35 0 18 0;
#X connect 36 0 35 1;
#X connect 37 0 35 1;
#X connect 38 0 40 0;
#X connect 38 1 41 0;
#X connect 39 0 22 1;
#X connect 40 0 39 1;
#X connect 41 0 39 1;
#X connect 42 0 44 0;
#X connect 42 2 43 0;
#X connect 43 0 44 1;
#X connect 44 0 45 0;
#X connect 45 0 46 1;
#X connect 46 0 12 0;
#X connect 46 0 12 1;
#X coords 0 -1 1 1 600 150 1 300 10;
