#N canvas 335 176 1366 686 10;
#X obj 382 -60 loadbang;
#X msg 381 -26 0;
#X obj 518 347 *~;
#X obj 533 378 -~;
#X obj 561 347 *~;
#X obj 563 284 cos~;
#X obj 602 317 cos~;
#X obj 564 249 phasor~;
#X obj 603 283 +~ -0.25;
#X obj 624 248 sig~;
#X floatatom 490 25 5 0 0 0 - - -;
#X obj 345 27 hsl 128 15 -1000 1000 0 0 empty empty Frequency_Shift
-2 -8 0 10 -262144 -1 -1 12700 1;
#X obj 400 549 output~;
#X obj 606 398 wsprobe~;
#X obj 517 317 hilbert~;
#X obj 434 334 *~;
#X msg 313 -26 0;
#X obj 565 217 *~;
#X obj 314 19 vradio 15 1 0 2 empty empty empty 0 -8 0 10 -262144 -1
-1 1;
#X obj 280 -47 adc~;
#X obj 261 374 sig~;
#X floatatom 490 62 5 0 0 0 - - -;
#X obj 343 62 hsl 128 15 -1000 1000 0 0 empty empty delay -2 -8 0 10
-262144 -1 -1 10400 1;
#X obj 261 407 vd~ delayline;
#X obj 344 96 hsl 128 15 0 1 0 0 empty empty feedback -2 -8 0 10 -262144
-1 -1 0 1;
#X floatatom 490 94 5 0 0 0 - - -;
#X obj 333 441 sig~;
#X obj 258 474 *~;
#X obj 258 508 s~ feedback;
#X obj 329 305 r~ feedback;
#X obj 328 379 delwrite~ delayline 1000;
#X obj 279 307 *~;
#X obj 260 440 +~;
#X msg 653 171 0;
#X msg 609 173 1;
#X msg 557 171 0;
#X msg 526 172 1;
#X obj 315 68 vradio 15 1 0 2 empty empty empty 0 -8 0 10 -262144 -1
-1 1;
#X obj 589 136 route 0;
#X msg 394 242 0;
#X msg 357 244 1;
#X msg 289 243 0;
#X msg 321 246 1;
#X obj 446 267 *~;
#X obj 302 205 route 0;
#X obj 247 146 *;
#X obj 479 213 *;
#X connect 0 0 1 0;
#X connect 1 0 11 0;
#X connect 2 0 3 0;
#X connect 3 0 12 0;
#X connect 3 0 12 1;
#X connect 3 0 13 0;
#X connect 3 0 43 0;
#X connect 4 0 3 1;
#X connect 5 0 2 1;
#X connect 6 0 4 1;
#X connect 7 0 8 0;
#X connect 7 0 5 0;
#X connect 8 0 6 0;
#X connect 9 0 17 0;
#X connect 10 0 9 0;
#X connect 11 0 10 0;
#X connect 14 0 2 0;
#X connect 14 1 4 0;
#X connect 15 0 12 0;
#X connect 15 0 12 1;
#X connect 16 0 18 0;
#X connect 16 0 37 0;
#X connect 17 0 7 0;
#X connect 18 0 38 0;
#X connect 19 0 14 0;
#X connect 19 0 15 0;
#X connect 19 0 31 0;
#X connect 20 0 23 0;
#X connect 21 0 20 0;
#X connect 22 0 21 0;
#X connect 23 0 32 0;
#X connect 24 0 25 0;
#X connect 25 0 26 0;
#X connect 26 0 27 1;
#X connect 27 0 28 0;
#X connect 29 0 30 0;
#X connect 31 0 30 0;
#X connect 31 0 32 1;
#X connect 32 0 27 0;
#X connect 32 0 12 0;
#X connect 32 0 12 1;
#X connect 33 0 15 1;
#X connect 33 0 45 1;
#X connect 34 0 17 1;
#X connect 34 0 46 1;
#X connect 35 0 17 1;
#X connect 36 0 15 1;
#X connect 37 0 44 0;
#X connect 38 0 36 0;
#X connect 38 0 35 0;
#X connect 38 1 34 0;
#X connect 38 1 33 0;
#X connect 39 0 15 1;
#X connect 39 0 45 0;
#X connect 40 0 31 1;
#X connect 40 0 46 0;
#X connect 41 0 31 1;
#X connect 41 0 43 1;
#X connect 43 0 32 1;
#X connect 43 0 30 0;
#X connect 44 0 42 0;
#X connect 44 0 41 0;
#X connect 44 1 40 0;
#X connect 44 1 39 0;
#X connect 45 0 31 1;
#X connect 46 0 43 1;
#X coords 0 -1 1 1 255 150 1 300 10;
