#N canvas 0 0 1366 686 10;
#X obj 478 -116 loadbang;
#X msg 478 -79 0;
#X floatatom 626 3 5 0 0 0 - - -;
#X obj 481 5 hsl 128 15 -1000 1000 0 0 empty empty Frequency_Shift
-2 -8 0 10 -262144 -1 -1 5100 1;
#X floatatom 627 78 5 0 0 0 - - -;
#X obj 480 78 hsl 128 15 0 1000 0 0 empty empty Delay -2 -8 0 10 -262144
-1 -1 0 1;
#X obj 481 124 hsl 128 15 0 1 0 0 empty empty Feedback -2 -8 0 10 -262144
-1 -1 0 1;
#X floatatom 627 122 5 0 0 0 - - -;
#X obj 451 -3 vradio 15 1 0 2 empty empty empty 0 -8 0 10 -262144 -1
-1 1;
#X obj 450 67 vradio 15 1 0 2 empty empty empty 0 -8 0 10 -262144 -1
-1 0;
#X obj 820 14 LFO~;
#X text 1160 37 LFO;
#X obj 344 63 bng 15 250 50 0 empty empty empty 17 7 0 10 -262144 -1
-1;
#X obj 229 -60 delay 500;
#X msg 344 90 start;
#X msg 344 118 stop;
#X obj 343 26 hradio 15 1 0 2 empty empty empty 0 -8 0 10 -262144 -1
-1 1;
#X obj 774 19 bng 15 250 50 0 empty empty empty 17 7 0 10 -262144 -1
-1;
#X obj 773 51 bng 15 250 50 0 empty empty empty 17 7 0 10 -262144 -1
-1;
#X msg 1113 -35 0.8;
#X msg 966 -35 20;
#X text 694 16 Activate LFO;
#X text 700 47 Disable LFO;
#X obj 773 86 vradio 15 1 0 2 empty empty empty 0 -8 0 10 -262144 -1
-1 1;
#X text 756 68 Tremolo;
#X text 728 118 Ring modulation;
#X text 341 41 Open .wav file;
#X text 428 -4 OFF;
#X text 430 10 ON;
#X text 428 64 OFF;
#X text 427 108 OFF;
#X text 430 80 ON;
#X text 430 123 ON;
#X obj 105 83 hsl 128 15 0 10000 0 0 empty empty cut-off_frequency
-2 -8 0 10 -262144 -1 -1 0 1;
#X floatatom 73 140 5 0 0 0 - - -;
#X obj 21 181 hip~;
#X obj 51 205 lop~;
#X obj 97 238 bp~;
#X obj 175 152 hsl 128 15 0 100 0 0 empty empty Q_factor -2 -8 0 10
-262144 -1 -1 0 1;
#X floatatom 183 183 5 0 0 0 - - -;
#X obj 76 10 route 1 2 3;
#X obj 43 -55 hradio 15 1 0 3 empty empty empty 0 -8 0 10 -262144 -1
-1 0;
#X obj 20 78 *~;
#X obj 481 41 hsl 128 15 0 1 0 0 empty empty Mixer -2 -8 0 10 -262144
-1 -1 7100 1;
#X obj 450 108 vradio 15 1 0 2 empty empty empty 0 -8 0 10 -262144
-1 -1 0;
#X msg 344 -80 1;
#X text 362 -5 Real Voice;
#X text 306 -5 Recorded Sound;
#X floatatom 625 40 5 0 0 0 - - -;
#X floatatom 661 40 5 0 0 0 - - -;
#X text 477 23;
#X obj 399 437 *~;
#X obj 399 467 -~;
#X obj 442 437 *~;
#X obj 444 374 cos~;
#X obj 483 407 cos~;
#X obj 445 339 phasor~;
#X obj 482 372 +~ -0.25;
#X obj 445 304 sig~;
#X obj 806 523 output~;
#X obj 398 407 hilbert~;
#X obj 397 212 adc~;
#X obj 627 302 sig~;
#X obj 618 334 vd~ delayline;
#X obj 711 223 sig~;
#X obj 617 401 *~;
#X obj 616 432 s~ feedback;
#X obj 398 515 r~ feedback;
#X obj 399 550 delwrite~ delayline 1000;
#X obj 617 367 +~;
#X obj 333 255 route 0;
#X obj 349 321 *~;
#X msg 333 278 0;
#X msg 372 277 1;
#X obj 552 253 route 0;
#X obj 566 318 *~;
#X msg 552 276 0;
#X msg 589 276 1;
#X obj 701 273 route 0;
#X obj 713 333 *~;
#X msg 701 296 0;
#X msg 740 295 1;
#X obj 974 242 sig~;
#X obj 960 277 +~;
#X obj 960 314 *~ 0.5;
#X obj 806 495 *~;
#X text 274 406 Frequency Shifting;
#X text 524 290 comment;
#X text 505 252 Delay;
#X text 640 271 Feedback;
#X obj 256 249 readsf~;
#X msg 256 272 open \$1;
#X obj 137 255 openpanel;
#X obj 136 311 route 0;
#X obj 398 358 *~;
#X msg 136 342 0;
#X msg 175 343 1;
#X obj 774 185 route 0;
#X obj 821 372 *~;
#X msg 774 219 0;
#X msg 803 220 1;
#X obj 961 372 *~;
#X msg 866 221 0;
#X msg 836 220 1;
#X text 771 368 Tremolo;
#X text 1009 315 Ring modulation;
#X floatatom 242 453 5 0 0 0 - - -;
#X floatatom 280 453 5 0 0 0 - - -;
#X obj 190 447 bng 15 250 50 0 empty empty empty 17 7 0 10 -262144
-1 -1;
#X obj 227 479 -;
#X msg 190 479 1;
#X obj 431 492 *~;
#X obj 398 493 *~;
#X msg 280 428 1;
#X obj 224 428 loadbang;
#X text 148 462 Mixer;
#X connect 0 0 1 0;
#X connect 0 0 45 0;
#X connect 1 0 3 0;
#X connect 1 0 5 0;
#X connect 1 0 6 0;
#X connect 1 0 23 0;
#X connect 2 0 58 0;
#X connect 3 0 2 0;
#X connect 4 0 62 0;
#X connect 5 0 4 0;
#X connect 6 0 7 0;
#X connect 7 0 64 0;
#X connect 8 0 70 0;
#X connect 9 0 74 0;
#X connect 10 0 98 0;
#X connect 10 0 83 0;
#X connect 10 2 82 0;
#X connect 12 0 13 0;
#X connect 12 0 92 0;
#X connect 13 0 14 0;
#X connect 14 0 90 0;
#X connect 15 0 90 0;
#X connect 16 0 93 0;
#X connect 17 0 20 0;
#X connect 17 0 19 0;
#X connect 18 0 10 0;
#X connect 19 0 10 2;
#X connect 20 0 10 1;
#X connect 23 0 97 0;
#X connect 33 0 34 0;
#X connect 34 0 35 1;
#X connect 34 0 36 1;
#X connect 34 0 37 1;
#X connect 38 0 39 0;
#X connect 39 0 37 2;
#X connect 41 0 40 0;
#X connect 43 0 108 0;
#X connect 43 0 106 0;
#X connect 44 0 78 0;
#X connect 45 0 16 0;
#X connect 51 0 52 0;
#X connect 52 0 112 0;
#X connect 53 0 52 1;
#X connect 54 0 51 1;
#X connect 55 0 53 1;
#X connect 56 0 57 0;
#X connect 56 0 54 0;
#X connect 57 0 55 0;
#X connect 58 0 71 0;
#X connect 60 0 51 0;
#X connect 60 1 53 0;
#X connect 61 0 94 0;
#X connect 61 0 111 0;
#X connect 62 0 75 0;
#X connect 63 0 69 0;
#X connect 64 0 79 0;
#X connect 65 0 66 0;
#X connect 67 0 68 0;
#X connect 69 0 65 0;
#X connect 69 0 85 0;
#X connect 70 0 72 0;
#X connect 70 1 73 0;
#X connect 71 0 56 0;
#X connect 72 0 71 1;
#X connect 73 0 71 1;
#X connect 74 0 76 0;
#X connect 74 1 77 0;
#X connect 75 0 63 0;
#X connect 76 0 75 1;
#X connect 77 0 75 1;
#X connect 78 0 80 0;
#X connect 78 1 81 0;
#X connect 79 0 65 1;
#X connect 80 0 79 1;
#X connect 81 0 79 1;
#X connect 82 0 83 1;
#X connect 83 0 84 0;
#X connect 84 0 101 0;
#X connect 85 0 59 0;
#X connect 85 0 59 1;
#X connect 90 0 60 0;
#X connect 91 0 90 0;
#X connect 92 0 91 0;
#X connect 93 0 92 0;
#X connect 93 0 95 0;
#X connect 93 1 96 0;
#X connect 94 0 60 0;
#X connect 95 0 94 1;
#X connect 96 0 94 1;
#X connect 97 0 99 0;
#X connect 97 0 100 0;
#X connect 97 1 102 0;
#X connect 97 1 103 0;
#X connect 98 0 85 1;
#X connect 99 0 98 1;
#X connect 100 0 101 1;
#X connect 101 0 85 1;
#X connect 102 0 101 1;
#X connect 103 0 98 1;
#X connect 106 0 109 1;
#X connect 106 0 112 1;
#X connect 106 0 48 0;
#X connect 107 0 111 1;
#X connect 107 0 49 0;
#X connect 108 0 109 0;
#X connect 108 0 110 0;
#X connect 109 0 107 0;
#X connect 110 0 109 0;
#X connect 111 0 69 1;
#X connect 112 0 68 0;
#X connect 112 0 69 1;
#X connect 113 0 107 0;
#X connect 114 0 113 0;
#X coords 0 -1 1 1 850 170 1 300 -10;
