#N canvas 662 170 986 844 10;
#X obj 175 655 output~;
#X floatatom 487 -89 5 0 0 0 - - -;
#X obj 550 -89 s freq;
#X obj 523 142 hip~;
#X obj 544 79 r freq;
#X obj 607 330 *~;
#X obj 604 145 lop~;
#X obj 675 338 *~;
#X obj 676 143 bp~;
#X obj 337 -48 hsl 128 15 0 100 0 0 empty empty Q-factor(bp) -2 -8
0 10 -262144 -1 -1 0 1;
#X floatatom 485 -47 5 0 0 0 - - -;
#X obj 297 -93 vradio 15 1 0 4 empty empty empty 0 -8 0 10 -262144
-1 -1 0;
#X msg 260 129 1;
#X obj 526 331 *~;
#X obj 257 62 loadbang;
#X obj 324 66 loadbang;
#X msg 295 128 0;
#X obj 551 -49 s qfac;
#X obj 692 88 r qfac;
#X obj 399 67 loadbang;
#X obj 297 17 route 0 1 2;
#X msg 327 128 1;
#X msg 362 129 0;
#X msg 402 134 1;
#X msg 447 137 0;
#X obj 186 66 loadbang;
#X msg 186 126 1;
#X msg 220 130 0;
#X obj 169 326 *~;
#X obj 306 655 outlet~;
#X obj 167 -68 inlet~;
#X obj 337 -88 hsl 128 15 0 10000 0 0 empty empty Cut-off(hip/lop)/Center_Freq(bp)
-2 -8 0 10 -262144 -1 -1 0 1;
#X text 234 -97 No filter;
#X text 233 -82 High pass;
#X text 233 -66 Low pass;
#X text 236 -49 Band pass;
#X obj 181 -110 inlet;
#X obj 334 -17 inlet;
#X connect 1 0 2 0;
#X connect 3 0 13 0;
#X connect 4 0 3 1;
#X connect 4 0 6 1;
#X connect 4 0 8 1;
#X connect 5 0 0 0;
#X connect 5 0 0 1;
#X connect 5 0 29 0;
#X connect 6 0 5 0;
#X connect 7 0 0 0;
#X connect 7 0 0 1;
#X connect 7 0 29 0;
#X connect 8 0 7 0;
#X connect 9 0 10 0;
#X connect 10 0 17 0;
#X connect 11 0 20 0;
#X connect 12 0 13 1;
#X connect 13 0 0 0;
#X connect 13 0 0 1;
#X connect 13 0 29 0;
#X connect 14 0 12 0;
#X connect 14 0 16 0;
#X connect 15 0 21 0;
#X connect 15 0 22 0;
#X connect 16 0 5 1;
#X connect 16 0 7 1;
#X connect 16 0 28 1;
#X connect 18 0 8 2;
#X connect 19 0 23 0;
#X connect 19 0 24 0;
#X connect 20 0 25 0;
#X connect 20 1 14 0;
#X connect 20 2 15 0;
#X connect 20 3 19 0;
#X connect 21 0 5 1;
#X connect 22 0 13 1;
#X connect 22 0 7 1;
#X connect 22 0 28 1;
#X connect 23 0 7 1;
#X connect 24 0 5 1;
#X connect 24 0 13 1;
#X connect 24 0 28 1;
#X connect 25 0 26 0;
#X connect 25 0 27 0;
#X connect 26 0 28 1;
#X connect 27 0 13 1;
#X connect 27 0 5 1;
#X connect 27 0 7 1;
#X connect 28 0 0 0;
#X connect 28 0 0 1;
#X connect 28 0 29 0;
#X connect 30 0 3 0;
#X connect 30 0 6 0;
#X connect 30 0 8 0;
#X connect 30 0 28 0;
#X connect 31 0 1 0;
#X connect 36 0 11 0;
#X connect 37 0 31 0;
#X coords 0 -1 1 1 320 100 1 220 -120;
