#N canvas 880 129 667 691 10;
#X obj 294 121 bng 15 250 50 0 empty empty empty 17 7 0 10 -262144
-1 -1;
#X msg 9 57 \; pd dsp 1;
#X obj 95 141 hsl 128 15 0 50 0 0 empty empty SPEED -2 -8 0 10 -262144
-1 -1 0 1;
#X obj 148 182 hsl 128 15 0 1 0 0 empty empty DEPTH -2 -8 0 10 -262144
-1 -1 0 1;
#X floatatom 240 156 5 0 0 0 - - -;
#X floatatom 294 197 5 0 0 0 - - -;
#X obj 279 390 *~;
#X obj 92 252 bng 15 250 50 0 empty empty empty 17 7 0 10 -262144 -1
-1;
#X obj 238 360 clip~ -1 1;
#X obj 257 476 dac~;
#X obj 331 136 vradio 15 1 0 2 empty empty empty 0 -8 0 10 -262144
-1 -1 0;
#X obj 240 294 osc~ 440;
#X obj 358 476 wsprobe~;
#X msg 92 64 25;
#X msg 145 65 0.5;
#X text 91 158 0;
#X text 215 159 50;
#X text 144 201 0;
#X text 276 198 1;
#X text 293 101 RESET;
#X msg 265 63 0.5;
#X msg 376 293 100000;
#X msg 331 64 0;
#X msg 331 293 1;
#X obj 239 331 *~;
#X text 326 113 sin;
#X text 326 169 square;
#X obj 9 -19 inlet;
#X msg 285 263 0;
#X obj 297 475 outlet~;
#X obj 14 124 inlet;
#X obj 30 165 inlet;
#X msg 202 63 0;
#X text 102 101 25 0.5;
#X obj 393 172 outlet;
#X obj 421 213 outlet;
#X obj 331 239 select 0;
#X connect 0 0 32 0;
#X connect 0 0 20 0;
#X connect 2 0 4 0;
#X connect 2 0 7 0;
#X connect 3 0 5 0;
#X connect 3 0 7 0;
#X connect 4 0 11 0;
#X connect 4 0 34 0;
#X connect 5 0 6 1;
#X connect 5 0 35 0;
#X connect 6 0 9 0;
#X connect 6 0 9 1;
#X connect 6 0 12 0;
#X connect 6 0 29 0;
#X connect 7 0 28 0;
#X connect 8 0 6 0;
#X connect 10 0 36 0;
#X connect 11 0 24 0;
#X connect 13 0 2 0;
#X connect 14 0 3 0;
#X connect 20 0 3 0;
#X connect 21 0 24 1;
#X connect 22 0 10 0;
#X connect 23 0 24 1;
#X connect 24 0 8 0;
#X connect 27 0 1 0;
#X connect 27 0 13 0;
#X connect 27 0 14 0;
#X connect 27 0 22 0;
#X connect 28 0 11 1;
#X connect 30 0 2 0;
#X connect 31 0 3 0;
#X connect 32 0 2 0;
#X connect 36 0 23 0;
#X connect 36 1 21 0;
#X coords 0 -1 1 1 300 130 1 70 100;
