#N canvas 148 145 754 812 10;
#X obj 139 0 loadbang;
#X obj 139 35 bng 15 250 50 0 empty empty empty 17 7 0 10 -262144 -1
-1;
#X obj 71 77 delay 500;
#X msg 70 107 start;
#X msg 138 116 open speech.wav;
#X obj 138 149 readsf~;
#X obj 136 693 output~;
#X obj 530 -61 hsl 128 15 0 10000 0 0 empty empty cut-off_frequency
-2 -8 0 10 -262144 -1 -1 4900 1;
#X floatatom 615 10 5 0 0 0 - - -;
#X obj 605 53 s freq;
#X obj 290 390 hip~;
#X obj 303 107 r freq;
#X obj 459 497 *~;
#X obj 431 399 lop~;
#X obj 577 497 *~;
#X obj 611 436 bp~;
#X obj 548 102 hsl 128 15 0 100 0 0 empty empty Q -2 -8 0 10 -262144
-1 -1 9900 1;
#X floatatom 619 143 5 0 0 0 - - -;
#X obj 395 8 vradio 15 1 0 4 empty empty empty 0 -8 0 10 -262144 -1
-1 3;
#X msg 398 281 1;
#X obj 276 493 *~;
#X obj 440 201 loadbang;
#X obj 507 205 loadbang;
#X msg 456 283 0;
#X obj 651 184 s qfac;
#X obj 589 359 r qfac;
#X obj 582 206 loadbang;
#X obj 398 136 route 0 1 2;
#X msg 502 284 1;
#X msg 560 286 0;
#X msg 618 282 1;
#X msg 676 284 0;
#X obj 374 206 loadbang;
#X msg 290 265 1;
#X msg 348 267 0;
#X obj 275 340 *~;
#X connect 0 0 1 0;
#X connect 1 0 2 0;
#X connect 1 0 4 0;
#X connect 2 0 3 0;
#X connect 3 0 5 0;
#X connect 4 0 5 0;
#X connect 5 0 10 0;
#X connect 5 0 13 0;
#X connect 5 0 15 0;
#X connect 5 0 35 0;
#X connect 5 1 1 0;
#X connect 7 0 8 0;
#X connect 8 0 9 0;
#X connect 10 0 20 0;
#X connect 11 0 10 1;
#X connect 11 0 13 1;
#X connect 11 0 15 1;
#X connect 12 0 6 0;
#X connect 12 0 6 1;
#X connect 13 0 12 0;
#X connect 14 0 6 0;
#X connect 14 0 6 1;
#X connect 15 0 14 0;
#X connect 16 0 17 0;
#X connect 17 0 24 0;
#X connect 18 0 27 0;
#X connect 19 0 20 1;
#X connect 20 0 6 0;
#X connect 20 0 6 1;
#X connect 21 0 19 0;
#X connect 21 0 23 0;
#X connect 22 0 28 0;
#X connect 22 0 29 0;
#X connect 23 0 12 1;
#X connect 23 0 14 1;
#X connect 23 0 35 1;
#X connect 25 0 15 2;
#X connect 26 0 30 0;
#X connect 26 0 31 0;
#X connect 27 0 32 0;
#X connect 27 1 21 0;
#X connect 27 2 22 0;
#X connect 27 3 26 0;
#X connect 28 0 12 1;
#X connect 29 0 20 1;
#X connect 29 0 14 1;
#X connect 29 0 35 1;
#X connect 30 0 14 1;
#X connect 31 0 12 1;
#X connect 31 0 20 1;
#X connect 31 0 35 1;
#X connect 32 0 33 0;
#X connect 32 0 34 0;
#X connect 33 0 35 1;
#X connect 34 0 20 1;
#X connect 34 0 12 1;
#X connect 34 0 14 1;
#X connect 35 0 6 0;
#X connect 35 0 6 1;
