#N canvas 1338 184 524 597 10;
#X obj 144 16 loadbang;
#X obj 141 53 bng 15 250 50 0 empty empty empty 17 7 0 10 -262144 -1
-1;
#X obj 50 104 delay 500;
#X msg 48 149 start;
#X msg 144 102 open speech.wav;
#X obj 143 157 readsf~;
#X msg 237 157 0;
#X obj 157 455 *~;
#X obj 155 504 -~;
#X obj 211 453 *~;
#X obj 257 395 cos~;
#X obj 324 396 cos~;
#X obj 258 331 phasor~;
#X obj 322 355 +~ -0.25;
#X obj 261 286 sig~;
#X floatatom 257 245 5 0 0 0 - - -;
#X obj 249 203 hsl 128 15 -1000 1000 0 0 empty empty Frequency_Shift
-2 -8 0 10 -262144 -1 -1 8800 1;
#X obj 153 552 output~;
#X obj 258 553 wsprobe~;
#X obj 154 393 hilbert~;
#X obj 30 359 *~;
#X obj 79 381 *~;
#X obj 58 429 +~;
#X floatatom 31 300 5 0 0 0 - - -;
#X floatatom 102 331 5 0 0 0 - - -;
#X msg 100 296 0.5;
#X msg 45 269 0.5;
#X connect 0 0 1 0;
#X connect 0 0 6 0;
#X connect 1 0 4 0;
#X connect 1 0 2 0;
#X connect 2 0 3 0;
#X connect 3 0 5 0;
#X connect 4 0 5 0;
#X connect 5 0 20 1;
#X connect 5 0 19 0;
#X connect 5 1 1 0;
#X connect 6 0 16 0;
#X connect 7 0 8 0;
#X connect 8 0 21 1;
#X connect 9 0 8 1;
#X connect 10 0 7 1;
#X connect 11 0 9 1;
#X connect 12 0 13 0;
#X connect 12 0 10 0;
#X connect 13 0 11 0;
#X connect 14 0 12 0;
#X connect 15 0 14 0;
#X connect 16 0 15 0;
#X connect 19 0 7 0;
#X connect 19 1 9 0;
#X connect 20 0 22 0;
#X connect 21 0 22 1;
#X connect 22 0 17 0;
#X connect 22 0 17 1;
#X connect 22 0 18 0;
#X connect 23 0 20 0;
#X connect 24 0 21 0;
#X connect 25 0 24 0;
#X connect 26 0 23 0;
