#N canvas 82 131 653 669 10;
#X obj 139 0 loadbang;
#X obj 139 35 bng 15 250 50 0 empty empty empty 17 7 0 10 -262144 -1
-1;
#X obj 71 77 delay 500;
#X msg 70 107 start;
#X msg 138 116 open speech.wav;
#X obj 138 149 readsf~;
#X obj 97 568 output~;
#X obj 320 658 wsprobe~;
#X obj 326 202 hsl 128 15 0 10000 0 0 empty empty cut-off_frequency
-2 -8 0 10 -262144 -1 -1 0 1;
#X floatatom 232 191 5 0 0 0 - - -;
#X obj 99 344 hip~;
#X obj 319 356 lop~;
#X obj 347 437 bp~;
#X obj 478 196 hsl 128 15 0 100 0 0 empty empty Q_factor -2 -8 0 10
-262144 -1 -1 0 1;
#X floatatom 486 227 5 0 0 0 - - -;
#X obj 328 -16 route 1 2 3;
#X obj 254 28 hradio 15 1 0 3 empty empty empty 0 -8 0 10 -262144 -1
-1 0;
#X msg 334 58 0;
#X msg 283 97 1;
#X obj 194 310 *;
#X msg 441 133 0;
#X msg 430 74 1;
#X msg 568 115 0;
#X msg 527 133 1;
#X obj 319 283 *;
#X obj 515 357 *;
#X obj 447 348 *;
#X connect 0 0 1 0;
#X connect 1 0 2 0;
#X connect 1 0 4 0;
#X connect 2 0 3 0;
#X connect 3 0 5 0;
#X connect 4 0 5 0;
#X connect 5 0 10 0;
#X connect 5 0 11 0;
#X connect 5 0 12 0;
#X connect 5 1 1 0;
#X connect 8 0 9 0;
#X connect 9 0 19 0;
#X connect 9 0 24 0;
#X connect 9 0 26 0;
#X connect 10 0 6 0;
#X connect 10 0 6 1;
#X connect 10 0 7 0;
#X connect 11 0 6 0;
#X connect 11 0 6 1;
#X connect 12 0 6 0;
#X connect 12 0 6 1;
#X connect 13 0 14 0;
#X connect 14 0 25 0;
#X connect 15 0 18 0;
#X connect 15 0 17 0;
#X connect 15 1 21 0;
#X connect 15 1 20 0;
#X connect 15 2 23 0;
#X connect 15 2 22 0;
#X connect 16 0 15 0;
#X connect 17 0 24 1;
#X connect 18 0 19 1;
#X connect 19 0 10 1;
#X connect 20 0 10 1;
#X connect 20 0 19 1;
#X connect 21 0 24 1;
#X connect 22 0 19 1;
#X connect 22 0 24 1;
#X connect 23 0 26 1;
#X connect 23 0 25 1;
#X connect 24 0 11 1;
#X connect 25 0 12 2;
#X connect 26 0 12 1;
