#N canvas 962 138 840 669 10;
#X obj 367 63 inlet;
#X obj 7 426 outlet~;
#X obj 116 423 outlet~;
#X obj 214 428 outlet~;
#X obj 322 152 == 2;
#X obj 371 195 == 3;
#X obj 9 302 hip~;
#X obj 114 309 lop~;
#X obj 185 314 bp~;
#X obj 451 176 hsl 128 15 0 10000 0 0 empty empty cut-off_frequency
-2 -8 0 10 -262144 -1 -1 10800 1;
#X floatatom 448 242 5 0 0 0 - - -;
#X obj 65 37 inlet~;
#X obj 97 532 line~;
#X obj 451 304 s freq;
#X obj 275 124 == 1;
#X obj 263 70 == 0;
#X obj 156 83 r freq;
#X obj 161 190 *;
#X obj 182 130 bng 15 250 50 0 empty empty empty 17 7 0 10 -262144
-1 -1;
#X obj 456 -21 switch~;
#X msg 202 150 1;
#X floatatom 222 229 5 0 0 0 - - -;
#X connect 0 0 4 0;
#X connect 0 0 5 0;
#X connect 0 0 14 0;
#X connect 0 0 15 0;
#X connect 6 0 1 0;
#X connect 7 0 2 0;
#X connect 8 0 3 0;
#X connect 9 0 10 0;
#X connect 10 0 13 0;
#X connect 11 0 6 0;
#X connect 11 0 7 0;
#X connect 11 0 8 0;
#X connect 14 0 20 0;
#X connect 15 0 20 0;
#X connect 16 0 17 0;
#X connect 16 0 18 0;
#X connect 17 0 6 1;
#X connect 17 0 21 0;
#X connect 18 0 17 0;
#X connect 20 0 17 1;
#X coords 0 -1 1 1 300 400 1 400 100;
