#N canvas -9 -9 1920 976 10;
#X obj 478 -116 loadbang;
#X msg 478 -79 0;
#X floatatom 615 27 5 0 0 0 - - -;
#X obj 481 28 hsl 128 15 -1000 1000 0 0 empty empty Frequency_Shift
-2 -8 0 10 -262144 -1 -1 3600 1;
#X floatatom 615 100 5 0 0 0 - - -;
#X obj 480 101 hsl 128 15 0 1000 0 0 empty empty Delay -2 -8 0 10 -262144
-1 -1 2000 1;
#X obj 481 147 hsl 128 15 0 1 0 0 empty empty Feedback -2 -8 0 10 -262144
-1 -1 8600 1;
#X floatatom 615 147 5 0 0 0 - - -;
#X obj 451 20 vradio 15 1 0 2 empty empty empty 0 -8 0 10 -262144 -1
-1 1;
#X obj 450 90 vradio 15 1 0 2 empty empty empty 0 -8 0 10 -262144 -1
-1 0;
#X obj 845 12 LFO~;
#X obj 315 52 bng 15 250 50 0 empty empty empty 17 7 0 10 -262144 -1
-1;
#X obj 143 67 delay 500;
#X msg 143 101 start;
#X msg 140 132 stop;
#X obj 314 15 hradio 15 1 0 2 empty empty empty 0 -8 0 10 -262144 -1
-1 0;
#X obj 774 19 bng 15 250 50 0 empty empty empty 17 7 0 10 -262144 -1
-1;
#X obj 773 51 bng 15 250 50 0 empty empty empty 17 7 0 10 -262144 -1
-1;
#X msg 1138 -37 0.8;
#X msg 991 -37 20;
#X text 694 16 Activate LFO;
#X text 700 47 Disable LFO;
#X obj 773 86 vradio 15 1 0 2 empty empty empty 0 -8 0 10 -262144 -1
-1 1;
#X text 756 68 Tremolo;
#X text 728 118 Ring modulation;
#X text 312 34 Open .wav file;
#X text 428 19 OFF;
#X text 430 33 ON;
#X text 428 87 OFF;
#X text 427 131 OFF;
#X text 430 103 ON;
#X text 430 146 ON;
#X obj 481 64 hsl 128 15 0 1 0 0 empty empty Mixer -2 -8 0 10 -262144
-1 -1 12700 1;
#X obj 450 131 vradio 15 1 0 2 empty empty empty 0 -8 0 10 -262144
-1 -1 0;
#X msg 314 -78 1;
#X obj 399 697 *~;
#X obj 399 727 -~;
#X obj 442 697 *~;
#X obj 444 634 cos~;
#X obj 483 667 cos~;
#X obj 445 599 phasor~;
#X obj 482 632 +~ -0.25;
#X obj 445 564 sig~;
#X obj 783 279 output~;
#X obj 398 667 hilbert~;
#X obj 397 472 adc~;
#X obj 615 566 sig~;
#X obj 606 598 vd~ delayline;
#X obj 776 576 sig~;
#X obj 605 665 *~;
#X obj 604 696 s~ feedback;
#X obj 414 772 r~ feedback;
#X obj 399 804 delwrite~ delayline 1000;
#X obj 605 631 +~;
#X obj 333 515 route 0;
#X obj 349 581 *~;
#X msg 333 538 0;
#X msg 372 537 1;
#X obj 540 517 route 0;
#X obj 554 582 *~;
#X msg 540 540 0;
#X msg 577 540 1;
#X obj 707 518 route 0;
#X obj 713 593 *~;
#X msg 707 541 0;
#X msg 746 540 1;
#X obj 1138 521 sig~;
#X obj 999 537 +~;
#X obj 999 574 *~ 0.5;
#X obj 830 752 *~;
#X text 423 460 Frequency Shifting;
#X text 573 451 Delay;
#X text 741 459 Feedback;
#X obj 398 618 *~;
#X obj 859 507 route 0;
#X obj 845 632 *~;
#X msg 859 541 0;
#X msg 888 542 1;
#X obj 1000 632 *~;
#X msg 951 543 0;
#X msg 921 542 1;
#X text 993 505 Tremolo;
#X text 818 608 Ring modulation;
#X floatatom 615 64 5 0 0 0 - - -;
#X floatatom 661 64 5 0 0 0 - - -;
#X obj 534 -57 bng 15 250 50 0 empty empty empty 17 7 0 10 -262144
-1 -1;
#X obj 600 -42 -;
#X msg 571 -42 1;
#X obj 431 752 *~;
#X obj 398 753 *~;
#X msg 661 -76 1;
#X text 577 -62 Mixer;
#X obj 36 30 s File Hradio;
#X text 280 13 File;
#X text 348 13 Live Voice;
#X obj 49 52 s File Bang;
#X obj 40 118 s File Start;
#X obj 46 149 s File Stop;
#X obj 693 -31 s FreqShift;
#X obj 445 485 r FreqShift;
#X obj 400 423 s Delay;
#X obj 540 479 r Delay;
#X obj 450 423 s Feedback;
#X obj 707 480 r Feedback;
#X msg 773 -71 0;
#X obj 635 362 s FeedSig;
#X obj 776 552 r FeedSig;
#X obj 703 362 s Mixer a;
#X floatatom 246 737 5 0 0 0 - - -;
#X obj 231 758 -;
#X msg 216 736 1;
#X floatatom 231 780 5 0 0 0 - - -;
#X obj 216 715 bng 15 250 50 0 empty empty empty 17 7 0 10 -262144
-1 -1;
#X obj 246 714 r Mixer a;
#X text 187 757 Mixer;
#X obj 829 796 s~ freqfilter;
#X obj 127 154 r~ freqfilter;
#X obj 187 649 readsf~;
#X msg 187 590 open \$1;
#X obj 187 563 openpanel;
#X obj 89 570 route 0;
#X msg 89 536 0;
#X msg 128 601 1;
#X obj 89 519 r File Hradio;
#X obj 187 520 r File Bang;
#X obj 71 632 r File Start;
#X obj 71 657 r File Stop;
#X text 143 489 File Reading;
#X obj 314 86 bng 15 250 50 0 empty empty empty 17 7 0 10 -262144 -1
-1;
#X obj 313 117 bng 15 250 50 0 empty empty empty 17 7 0 10 -262144
-1 -1;
#X text 311 68 Start;
#X text 312 100 Stop;
#X text 354 454 Voice Input;
#X text 298 153 Presets;
#X obj 316 214 bng 15 250 50 0 empty empty empty 17 7 0 10 -262144
-1 -1;
#X text 279 212 Dalek;
#X obj 52 230 s Dalek B;
#X obj 785 -106 r Dalek B;
#X msg 725 -60 0.75;
#X msg 143 228 1;
#X msg 692 -59 450;
#X text 275 187 Normal;
#X obj 317 187 bng 15 250 50 0 empty empty empty 17 7 0 10 -262144
-1 -1;
#X obj 46 203 s Normal B;
#X obj 852 -106 r Normal B;
#X obj 316 239 bng 15 250 50 0 empty empty empty 17 7 0 10 -262144
-1 -1;
#X text 266 239 Muffled;
#X obj 456 172 frequencyfilter~;
#X msg 143 253 2;
#X msg 172 253 300;
#X msg 144 202 0;
#X obj 315 262 bng 15 250 50 0 empty empty empty 17 7 0 10 -262144
-1 -1;
#X text 284 261 Echo;
#X msg 143 279 1;
#X msg 173 279 250;
#X text 448 -10 Advanced Settings;
#X obj 783 153 GraphicEqualiser~;
#X obj 399 212 bng 15 250 50 0 empty empty empty 17 7 0 10 -262144
-1 -1;
#X text 339 211 Kidnapper;
#X msg 138 333 -433;
#X msg 176 333 1;
#X obj 924 -106 r Kidnapper B;
#X obj 42 336 s Kidnapper B;
#X msg 924 -84 1;
#X obj 399 236 bng 15 250 50 0 empty empty empty 17 7 0 10 -262144
-1 -1;
#X text 370 234 C3PO;
#X msg 138 354 55.11;
#X msg 220 357 0.67;
#X msg 180 355 1;
#X obj 398 262 bng 15 250 50 0 empty empty empty 17 7 0 10 -262144
-1 -1;
#X text 356 259 Wall-E;
#X msg 138 375 1000;
#X msg 175 376 1;
#X obj 59 378 s Wall-E B;
#X obj 1018 -106 r Wall-E B;
#X connect 0 0 1 0;
#X connect 0 0 34 0;
#X connect 0 0 104 0;
#X connect 0 0 90 0;
#X connect 0 0 85 0;
#X connect 1 0 3 0;
#X connect 1 0 5 0;
#X connect 1 0 6 0;
#X connect 2 0 98 0;
#X connect 3 0 2 0;
#X connect 4 0 46 0;
#X connect 5 0 4 0;
#X connect 6 0 7 0;
#X connect 7 0 105 0;
#X connect 8 0 54 0;
#X connect 9 0 100 0;
#X connect 10 0 75 0;
#X connect 10 0 67 0;
#X connect 10 2 66 0;
#X connect 11 0 12 0;
#X connect 11 0 95 0;
#X connect 12 0 13 0;
#X connect 13 0 96 0;
#X connect 14 0 97 0;
#X connect 15 0 92 0;
#X connect 16 0 19 0;
#X connect 16 0 18 0;
#X connect 17 0 10 0;
#X connect 18 0 10 2;
#X connect 19 0 10 1;
#X connect 22 0 74 0;
#X connect 32 0 85 0;
#X connect 32 0 83 0;
#X connect 33 0 102 0;
#X connect 34 0 15 0;
#X connect 35 0 36 0;
#X connect 36 0 89 0;
#X connect 37 0 36 1;
#X connect 38 0 35 1;
#X connect 39 0 37 1;
#X connect 40 0 41 0;
#X connect 40 0 38 0;
#X connect 41 0 39 0;
#X connect 42 0 55 0;
#X connect 44 0 35 0;
#X connect 44 1 37 0;
#X connect 45 0 73 0;
#X connect 45 0 88 0;
#X connect 46 0 59 0;
#X connect 47 0 53 0;
#X connect 48 0 63 0;
#X connect 49 0 50 0;
#X connect 51 0 52 0;
#X connect 53 0 49 0;
#X connect 53 0 69 0;
#X connect 54 0 56 0;
#X connect 54 1 57 0;
#X connect 55 0 40 0;
#X connect 56 0 55 1;
#X connect 57 0 55 1;
#X connect 58 0 60 0;
#X connect 58 1 61 0;
#X connect 59 0 47 0;
#X connect 60 0 59 1;
#X connect 61 0 59 1;
#X connect 62 0 64 0;
#X connect 62 1 65 0;
#X connect 63 0 49 1;
#X connect 64 0 63 1;
#X connect 65 0 63 1;
#X connect 66 0 67 1;
#X connect 67 0 68 0;
#X connect 68 0 78 0;
#X connect 69 0 115 0;
#X connect 73 0 44 0;
#X connect 74 0 76 0;
#X connect 74 0 77 0;
#X connect 74 1 79 0;
#X connect 74 1 80 0;
#X connect 75 0 69 1;
#X connect 76 0 75 1;
#X connect 77 0 78 1;
#X connect 78 0 69 1;
#X connect 79 0 78 1;
#X connect 80 0 75 1;
#X connect 83 0 86 1;
#X connect 83 0 107 0;
#X connect 85 0 86 0;
#X connect 85 0 87 0;
#X connect 86 0 84 0;
#X connect 87 0 86 0;
#X connect 87 0 83 0;
#X connect 88 0 53 1;
#X connect 89 0 52 0;
#X connect 89 0 53 1;
#X connect 90 0 84 0;
#X connect 99 0 42 0;
#X connect 101 0 58 0;
#X connect 103 0 62 0;
#X connect 104 0 22 0;
#X connect 106 0 48 0;
#X connect 108 0 109 1;
#X connect 108 0 112 0;
#X connect 108 0 89 1;
#X connect 109 0 111 0;
#X connect 110 0 109 0;
#X connect 111 0 88 1;
#X connect 112 0 110 0;
#X connect 113 0 108 0;
#X connect 116 0 147 0;
#X connect 117 0 44 0;
#X connect 117 0 88 0;
#X connect 118 0 117 0;
#X connect 119 0 118 0;
#X connect 120 0 119 0;
#X connect 120 0 121 0;
#X connect 120 1 122 0;
#X connect 121 0 73 1;
#X connect 122 0 73 1;
#X connect 123 0 120 0;
#X connect 124 0 119 0;
#X connect 125 0 117 0;
#X connect 126 0 117 0;
#X connect 128 0 13 0;
#X connect 129 0 14 0;
#X connect 134 0 136 0;
#X connect 134 0 139 0;
#X connect 137 0 16 0;
#X connect 137 0 140 0;
#X connect 137 0 138 0;
#X connect 138 0 83 0;
#X connect 139 0 8 0;
#X connect 140 0 2 0;
#X connect 142 0 143 0;
#X connect 142 0 150 0;
#X connect 144 0 17 0;
#X connect 145 0 149 0;
#X connect 145 0 148 0;
#X connect 147 0 156 0;
#X connect 148 0 147 1;
#X connect 149 0 147 2;
#X connect 150 0 147 1;
#X connect 150 0 8 0;
#X connect 150 0 9 0;
#X connect 150 0 33 0;
#X connect 151 0 153 0;
#X connect 151 0 154 0;
#X connect 153 0 9 0;
#X connect 154 0 5 0;
#X connect 156 0 43 0;
#X connect 156 0 43 1;
#X connect 157 0 159 0;
#X connect 157 0 162 0;
#X connect 157 0 160 0;
#X connect 159 0 3 0;
#X connect 160 0 32 0;
#X connect 160 0 8 0;
#X connect 161 0 163 0;
#X connect 161 0 16 0;
#X connect 163 0 22 0;
#X connect 164 0 168 0;
#X connect 164 0 166 0;
#X connect 164 0 167 0;
#X connect 166 0 3 0;
#X connect 167 0 32 0;
#X connect 168 0 8 0;
#X connect 169 0 171 0;
#X connect 169 0 172 0;
#X connect 169 0 173 0;
#X connect 171 0 3 0;
#X connect 172 0 32 0;
#X connect 172 0 8 0;
#X connect 174 0 163 0;
#X connect 174 0 16 0;
#X coords 0 -1 1 1 1100 350 1 250 -10;
